# xmcd
#
# Track frame offsets: 
#        187
#        16095
#        31885
#        44922
#        58722
#        76420
#        90915
#        112345
#        123867
#        141057
#        154010
#        168820
#        193395
#        208790
#        225270
#
# Disc length: 3283 seconds
#
# Revision: 0
# Processed by: cddbd v1.5.2PL0 Copyright (c) Steve Scherf et al.
# Submitted via: ExactAudioCopy v1.0b3
#
DISCID=c10cd10f
DTITLE=The Stylistics - The Stylistics Disc 5 Only You (Standard) VICG
DTITLE=58201-5
DYEAR=1900
DGENRE=Blues
TTITLE0=Only You (And You Alone)
TTITLE1=The Great Pretender
TTITLE2=I Got It Bad And That Ain't Good
TTITLE3=Don't Get Around MuchAnymore
TTITLE4=My Funny Valentine
TTITLE5=Don't Worry 'Bout Me
TTITLE6=UNchained Melody
TTITLE7=Satain Doll
TTITLE8=After The Lights Go Down Low
TTITLE9=Send For Me
TTITLE10=Can't Help Falling In Love
TTITLE11=The Lion Sleeps Tonight
TTITLE12=Wonder Woman
TTITLE13=You'll Never Get To Heaven
TTITLE14=It's Too Late
EXTD=
EXTT0=
EXTT1=
EXTT2=
EXTT3=
EXTT4=
EXTT5=
EXTT6=
EXTT7=
EXTT8=
EXTT9=
EXTT10=
EXTT11=
EXTT12=
EXTT13=
EXTT14=
PLAYORDER=
